<svg xmlns="http://www.w3.org/2000/svg" xmlns:xlink="http://www.w3.org/1999/xlink" width="300" zoomAndPan="magnify" viewBox="0 0 224.87999 225" height="300" preserveAspectRatio="xMidYMid meet" version="1.0"><defs><clipPath id="b19d7bbe9b"><path d="M 127.742188 73.363281 L 215.445312 73.363281 L 215.445312 179 L 127.742188 179 Z M 127.742188 73.363281 " clip-rule="nonzero"/></clipPath><clipPath id="f794726443"><path d="M 9.125 33 L 129 33 L 129 182 L 9.125 182 Z M 9.125 33 " clip-rule="nonzero"/></clipPath></defs><g clip-path="url(#b19d7bbe9b)"><path fill="#FFE447" d="M 181.121094 178.542969 L 179.632812 178.542969 C 178.789062 178.441406 177.945312 178.386719 177.101562 178.378906 C 175.96875 178.371094 175.121094 178.351562 174.566406 178.332031 C 173.308594 178.277344 172.164062 178.28125 171.128906 178.347656 C 169.855469 178.425781 168.519531 178.347656 167.21875 178.449219 C 166.453125 178.507812 165.691406 178.507812 164.921875 178.542969 L 164.847656 178.542969 C 164.433594 178.519531 164.019531 178.484375 163.609375 178.4375 C 163.125 178.378906 162.65625 178.40625 162.179688 178.304688 C 161.972656 178.261719 161.777344 178.222656 161.582031 178.191406 C 160.636719 178.023438 159.828125 177.652344 159.148438 177.078125 C 157.367188 175.570312 159.183594 173.238281 160.679688 172.578125 C 160.722656 172.558594 160.75 172.523438 160.757812 172.476562 C 160.769531 172.429688 160.753906 172.386719 160.71875 172.355469 C 160.503906 172.148438 160.308594 171.933594 160.128906 171.707031 C 158.972656 170.242188 157.964844 168.667969 157.105469 166.972656 C 156.953125 166.671875 156.804688 166.398438 156.660156 166.152344 C 156.601562 166.054688 156.5625 166.0625 156.539062 166.171875 C 156.179688 167.828125 155.8125 169.4375 155.445312 170.996094 C 155.136719 172.300781 154.804688 173.414062 154.453125 174.335938 C 153.859375 175.878906 152.996094 177.125 151.351562 177.75 C 149.496094 178.460938 147.472656 178.59375 145.273438 178.152344 C 144.6875 178.035156 144.179688 177.820312 143.753906 177.511719 C 143.039062 176.988281 142.914062 176.144531 142.980469 175.285156 C 143.011719 174.828125 143.105469 174.4375 143.265625 174.113281 C 143.753906 173.09375 144.585938 172.476562 145.761719 172.269531 C 147.328125 171.992188 148.050781 171.363281 148.503906 169.769531 C 148.566406 169.539062 148.660156 169.382812 148.625 169.125 C 148.617188 169.070312 148.621094 169.015625 148.640625 168.964844 C 148.71875 168.734375 148.761719 168.496094 148.769531 168.257812 C 148.820312 166.816406 148.785156 165.632812 148.675781 164.710938 C 148.59375 164.066406 148.667969 163.429688 148.542969 162.796875 C 148.445312 162.289062 148.527344 161.78125 148.40625 161.296875 C 148.332031 160.992188 148.300781 160.683594 148.3125 160.371094 C 148.324219 159.988281 148.164062 159.652344 148.160156 159.273438 C 148.160156 158.941406 148.113281 158.601562 148.023438 158.253906 C 147.988281 158.113281 148.019531 157.976562 148 157.835938 C 147.621094 155.125 147.246094 152.414062 146.871094 149.703125 C 146.757812 148.894531 146.617188 148 146.449219 147.019531 C 145.886719 143.714844 144.828125 140.597656 143.269531 137.671875 C 141.738281 134.789062 139.90625 132.015625 138.132812 129.296875 C 136.507812 126.796875 135.109375 124.140625 134.582031 121.234375 C 134.511719 120.839844 134.464844 120.441406 134.449219 120.046875 C 134.429688 119.675781 134.402344 119.28125 134.371094 118.863281 C 134.3125 118.125 134.464844 117.40625 134.453125 116.679688 C 134.449219 116.425781 134.480469 116.179688 134.546875 115.941406 C 134.636719 115.621094 134.609375 115.300781 134.679688 114.96875 C 134.929688 113.765625 135.25 112.535156 135.632812 111.273438 C 135.929688 110.304688 136.152344 109.277344 136.285156 108.25 C 136.320312 107.964844 136.359375 107.679688 136.402344 107.398438 C 136.445312 107.121094 136.46875 106.84375 136.476562 106.566406 C 136.507812 105.277344 136.503906 104.09375 136.460938 103.019531 C 136.441406 102.550781 136.367188 101.972656 136.234375 101.292969 C 136.015625 100.164062 135.507812 99.089844 134.5625 98.488281 C 134.015625 98.140625 133.375 97.785156 132.636719 97.421875 C 130.90625 96.570312 129.652344 95.351562 128.878906 93.765625 C 128.640625 93.28125 128.511719 92.757812 128.492188 92.199219 C 128.476562 91.714844 128.132812 91.300781 127.988281 90.847656 C 127.835938 90.386719 127.816406 89.933594 127.925781 89.492188 C 127.960938 89.347656 128.046875 89.253906 128.1875 89.207031 C 128.546875 89.089844 128.894531 88.984375 129.222656 88.882812 C 130.597656 88.46875 131.539062 87.492188 131.796875 86.105469 C 132.054688 84.71875 132.992188 83.824219 134.195312 83.144531 C 135.570312 82.367188 137.054688 81.789062 138.644531 81.414062 C 138.726562 81.394531 138.808594 81.386719 138.890625 81.390625 C 138.945312 81.394531 138.996094 81.382812 139.042969 81.351562 C 139.183594 81.265625 139.332031 81.230469 139.484375 81.246094 C 139.542969 81.25 139.578125 81.226562 139.589844 81.164062 C 139.703125 80.496094 139.757812 79.859375 139.75 79.25 C 139.742188 78.601562 139.921875 78.011719 139.910156 77.367188 C 139.902344 76.984375 140.027344 76.625 140.066406 76.230469 C 140.101562 75.898438 140.1875 75.539062 140.332031 75.152344 C 140.625 74.355469 141.308594 74.339844 141.789062 74.984375 C 142.023438 75.296875 142.285156 75.585938 142.492188 75.910156 C 143.527344 77.535156 144.546875 79.226562 145.554688 80.980469 C 145.613281 81.078125 145.679688 81.085938 145.757812 81.003906 C 147.015625 79.65625 148.363281 78.28125 149.800781 76.878906 C 150.722656 75.980469 151.640625 75.15625 152.5625 74.414062 C 153.175781 73.914062 154.164062 73.359375 154.820312 74.015625 C 155.003906 74.195312 155.183594 74.570312 155.355469 75.140625 C 155.558594 75.824219 155.691406 76.519531 155.75 77.21875 C 155.78125 77.597656 155.816406 77.949219 155.859375 78.273438 C 155.90625 78.632812 155.933594 78.980469 155.9375 79.308594 C 155.980469 81.40625 156.082031 83.386719 155.941406 85.570312 C 155.9375 85.621094 155.953125 85.667969 155.984375 85.710938 C 157.660156 87.804688 158.972656 89.8125 159.183594 92.382812 C 159.335938 94.207031 159.015625 95.738281 158.488281 97.472656 C 158.078125 98.824219 157.953125 100.101562 158.113281 101.304688 C 158.375 103.25 159.34375 104.667969 161.011719 105.558594 C 161.570312 105.855469 162.105469 106.164062 162.621094 106.480469 C 163.535156 107.042969 164.285156 107.734375 164.875 108.554688 C 165.359375 109.230469 165.832031 109.855469 166.300781 110.429688 C 167.265625 111.617188 168.792969 112.597656 170.148438 113.316406 C 173.265625 114.972656 175.726562 116.285156 178.394531 118.160156 C 183.816406 121.964844 188.097656 127.457031 190.863281 133.53125 C 193.195312 138.65625 194.597656 144.117188 195.554688 149.789062 C 195.597656 150.046875 195.628906 150.3125 195.652344 150.578125 C 195.679688 150.910156 195.800781 151.210938 195.792969 151.539062 C 195.777344 152.003906 195.957031 152.398438 195.949219 152.84375 C 195.9375 153.546875 196.101562 154.226562 196.105469 154.929688 C 196.113281 156.085938 196.113281 157.253906 196.101562 158.433594 C 196.101562 158.75 196.070312 159.078125 196.015625 159.410156 C 195.9375 159.875 195.96875 160.328125 195.914062 160.804688 C 195.703125 162.566406 195.351562 164.363281 194.855469 166.203125 C 194.554688 167.316406 194.707031 168.234375 195.320312 168.957031 C 195.835938 169.566406 196.480469 169.941406 197.246094 170.085938 C 198.761719 170.371094 200.167969 170.109375 201.472656 169.308594 C 204.652344 167.351562 206.554688 163.5625 207.359375 160.019531 C 207.480469 159.476562 207.597656 158.917969 207.707031 158.351562 C 207.753906 158.101562 207.777344 157.859375 207.785156 157.621094 C 207.789062 157.277344 207.929688 156.996094 207.9375 156.65625 C 207.949219 156.195312 207.921875 155.746094 207.984375 155.277344 C 208.144531 154.050781 207.976562 152.878906 207.941406 151.660156 C 207.933594 151.367188 207.90625 151.078125 207.863281 150.789062 C 207.824219 150.507812 207.78125 150.207031 207.738281 149.894531 C 207.578125 148.714844 207.324219 147.507812 206.976562 146.273438 C 206.3125 143.90625 205.253906 141.800781 203.800781 139.953125 C 203.253906 139.253906 202.90625 138.722656 202.765625 138.363281 C 202.140625 136.789062 202.5 134.425781 204.375 133.917969 C 204.96875 133.757812 205.816406 133.816406 206.421875 134.070312 C 207.871094 134.675781 209.011719 135.796875 209.953125 137.089844 C 211.160156 138.746094 212.175781 140.59375 213 142.636719 C 214.085938 145.332031 214.832031 148.117188 215.242188 150.988281 C 215.324219 151.5625 215.402344 152.128906 215.472656 152.675781 C 215.535156 153.171875 215.574219 153.714844 215.59375 154.308594 C 215.613281 154.875 215.636719 155.4375 215.664062 156.003906 C 215.726562 157.214844 215.640625 158.464844 215.550781 159.78125 C 215.4375 161.382812 215.160156 163.015625 214.71875 164.683594 C 214.082031 167.078125 213.171875 169.171875 211.976562 170.960938 C 210.644531 172.964844 209.101562 174.480469 207.066406 175.714844 C 204.953125 177 202.523438 177.84375 199.78125 178.253906 C 199.195312 178.339844 198.707031 178.386719 198.316406 178.386719 C 197.679688 178.386719 197.023438 178.558594 196.40625 178.488281 C 195.738281 178.414062 195.0625 178.40625 194.402344 178.308594 C 193.046875 178.105469 192.003906 177.640625 190.808594 177.1875 C 189.476562 176.679688 188.164062 176.734375 186.875 177.355469 C 185.71875 177.910156 184.476562 178.25 183.148438 178.375 C 182.472656 178.4375 181.796875 178.496094 181.121094 178.542969 Z M 181.121094 178.542969 " fill-opacity="1" fill-rule="nonzero"/></g><g clip-path="url(#f794726443)"><path fill="#FFE447" d="M 44.847656 162.246094 C 46.714844 162.847656 48.605469 163.449219 50.601562 163.355469 C 54.386719 163.183594 57.46875 164.8125 60.347656 167 C 61.027344 167.515625 61.03125 167.625 60.984375 168.105469 L 62.941406 170.347656 L 62.074219 170.398438 L 61.980469 171.199219 C 61.121094 170.566406 60.617188 171.164062 60.050781 171.625 C 59.054688 172.429688 57.957031 172.90625 56.628906 172.640625 C 56.445312 172.601562 56.226562 172.753906 56.023438 172.777344 C 55.824219 172.800781 55.503906 172.859375 55.421875 172.757812 C 54.992188 172.21875 54.671875 172.53125 54.304688 172.8125 C 54.042969 173.03125 53.738281 173.148438 53.394531 173.164062 C 53.046875 173.179688 52.734375 173.085938 52.453125 172.890625 C 52.152344 172.703125 51.785156 172.605469 51.464844 172.4375 C 51.144531 172.269531 50.832031 172.082031 50.535156 171.875 C 49.976562 171.5 49.46875 171.023438 48.867188 170.738281 C 47.851562 170.234375 46.800781 169.8125 45.714844 169.480469 C 44.421875 169.101562 43.070312 168.914062 41.757812 168.574219 C 39.851562 168.089844 37.941406 167.597656 36.0625 167.011719 C 34.867188 166.632812 33.710938 166.160156 32.59375 165.589844 C 31.9375 165.25 31.371094 164.792969 30.902344 164.222656 C 30.15625 163.316406 30.25 162.339844 31.046875 161.480469 C 32.089844 160.359375 33.148438 159.253906 34.230469 158.164062 C 34.464844 157.972656 34.617188 157.730469 34.691406 157.433594 C 34.769531 157.140625 34.75 156.851562 34.636719 156.570312 C 34.390625 155.851562 34.246094 155.097656 34.054688 154.355469 C 33.703125 153.003906 32.652344 152.644531 31.472656 153.472656 C 31.410156 153.511719 31.355469 153.558594 31.304688 153.613281 C 29.847656 155.304688 27.972656 155.472656 25.957031 155.054688 C 21.609375 154.125 17.34375 152.902344 13.164062 151.390625 C 11.980469 150.96875 10.84375 150.425781 9.671875 149.964844 C 9.269531 149.808594 9.121094 149.59375 9.261719 149.183594 C 9.800781 147.589844 10.558594 146.144531 11.902344 145.070312 C 12.707031 144.417969 13.628906 144.125 14.660156 144.199219 C 17.753906 144.375 20.800781 144.757812 23.65625 146.085938 C 24.054688 146.285156 24.472656 146.371094 24.914062 146.339844 C 25.359375 146.3125 25.761719 146.171875 26.128906 145.921875 C 27.554688 145 28.976562 144.0625 30.347656 143.082031 C 30.617188 142.839844 30.742188 142.539062 30.726562 142.175781 C 30.179688 138.011719 30.601562 133.953125 32 129.992188 C 32.710938 128.019531 33.964844 126.175781 35.265625 124.5 C 38.128906 120.816406 40.691406 116.933594 43.300781 113.074219 C 45.710938 109.5 48.425781 106.140625 50.96875 102.648438 C 53.691406 98.925781 56.394531 95.1875 59.074219 91.441406 C 60.914062 88.800781 62.988281 86.363281 65.308594 84.132812 C 66.480469 83.035156 67.902344 82.207031 69.203125 81.25 C 69.859375 80.808594 70.484375 80.332031 71.082031 79.816406 C 72.890625 78.113281 74.90625 76.582031 75.738281 74.089844 C 75.992188 73.328125 76.246094 72.582031 76.5625 71.832031 C 76.957031 70.925781 77.636719 70.324219 78.695312 70.351562 C 78.910156 70.367188 79.109375 70.316406 79.285156 70.191406 C 79.464844 70.066406 79.582031 69.898438 79.640625 69.691406 C 79.960938 68.890625 80.347656 68.121094 80.71875 67.339844 C 80.972656 66.800781 80.949219 66.226562 80.71875 65.480469 C 80.671875 65.351562 80.851562 65.148438 80.929688 64.972656 C 80.257812 64.503906 80.195312 63.859375 80.824219 63.074219 L 80.046875 62.46875 L 80.824219 61.75 L 80.222656 61.6875 L 80.75 60.898438 L 80.097656 60.792969 C 80.097656 60.757812 80.058594 60.691406 80.078125 60.667969 C 80.605469 60.039062 80.101562 59.316406 80.269531 58.65625 C 80.289062 58.5 80.300781 58.347656 80.296875 58.191406 L 80.058594 58.039062 L 80.773438 56.667969 L 80.324219 56.460938 C 80.871094 55.785156 81.511719 55.222656 81.53125 54.144531 C 81.636719 54.0625 81.738281 53.976562 81.832031 53.886719 C 82.226562 53.492188 82.945312 53.089844 82.9375 52.699219 C 82.875 51.816406 82.652344 50.976562 82.277344 50.175781 C 82.070312 49.675781 81.605469 49.289062 81.160156 48.734375 C 80.199219 51.824219 79.234375 54.675781 77.402344 57.109375 L 77.171875 57.042969 C 77.0625 55.839844 76.964844 54.664062 76.828125 53.476562 C 76.808594 53.011719 76.703125 52.566406 76.507812 52.140625 C 75.757812 50.839844 74.886719 49.609375 74.15625 48.304688 C 73.496094 47.132812 72.789062 45.945312 72.402344 44.671875 C 71.777344 42.605469 72.664062 40.917969 74.554688 39.847656 C 76.097656 38.972656 77.789062 38.546875 79.449219 37.996094 C 81.378906 37.351562 83.257812 36.539062 85.175781 35.882812 C 85.980469 35.613281 86.859375 35.558594 87.707031 35.421875 C 87.875 35.394531 88.070312 35.484375 88.21875 35.421875 C 88.765625 35.199219 89.105469 35.390625 89.460938 35.839844 C 90.0625 36.582031 90.941406 36.675781 91.769531 36.441406 C 94.058594 35.839844 96.40625 35.839844 98.742188 35.726562 C 99.476562 35.699219 100.214844 35.835938 100.953125 35.847656 C 103.023438 35.882812 105.089844 35.847656 107.15625 35.933594 C 108.179688 35.96875 108.59375 35.328125 108.964844 34.578125 C 109.171875 34.160156 109.351562 33.859375 109.894531 34.144531 C 110.023438 34.210938 110.304688 34.050781 110.476562 33.941406 C 111.179688 33.503906 111.9375 33.371094 112.746094 33.546875 C 113.195312 33.644531 113.632812 33.617188 114.0625 33.464844 C 114.675781 33.164062 115.324219 33.027344 116.003906 33.054688 C 116.6875 33.082031 117.320312 33.269531 117.910156 33.617188 C 119.574219 34.539062 121.414062 34.738281 123.191406 35.226562 C 124.699219 35.636719 126.1875 36.039062 127.65625 36.53125 C 128.992188 36.976562 129.148438 37.433594 128.863281 38.804688 C 128.238281 41.746094 127.40625 44.652344 127.527344 47.703125 C 127.507812 47.878906 127.472656 48.050781 127.417969 48.21875 C 127.0625 48.066406 126.71875 47.878906 126.394531 47.664062 C 125.675781 47.058594 124.972656 46.457031 124.300781 45.789062 C 123.984375 45.488281 123.746094 45.394531 123.351562 45.664062 C 121.886719 46.65625 120.386719 47.59375 118.933594 48.601562 C 118.242188 49.078125 118.007812 49.804688 117.972656 50.652344 C 117.886719 52.75 117.671875 54.835938 117.570312 56.929688 C 117.472656 59.089844 116.390625 60.816406 115.242188 62.515625 C 114.683594 63.347656 113.972656 64.082031 113.390625 64.898438 C 113.167969 65.203125 112.894531 65.714844 113 65.996094 C 113.6875 67.84375 113.417969 69.695312 113.171875 71.554688 C 112.871094 73.878906 112.570312 76.203125 112.253906 78.527344 C 112.085938 79.761719 112.289062 80.929688 112.855469 82.039062 C 114.367188 85.117188 115.347656 88.355469 115.800781 91.757812 C 116.164062 94.46875 116.945312 97.105469 117.46875 99.792969 C 117.886719 101.957031 118.070312 104.144531 117.703125 106.34375 C 117.5 107.503906 117.039062 108.558594 116.332031 109.5 C 114.539062 111.945312 113.113281 114.597656 112.441406 117.574219 C 112.15625 118.835938 112.117188 120.160156 112.015625 121.464844 C 111.800781 124.183594 111.25 126.832031 110.355469 129.410156 C 109.472656 132.078125 109.023438 134.816406 109.019531 137.628906 C 108.933594 141.773438 108.84375 145.921875 108.835938 150.070312 C 108.835938 152.4375 109.550781 154.6875 110.269531 156.921875 C 110.296875 157.042969 110.355469 157.148438 110.445312 157.238281 C 111.203125 157.78125 111.417969 158.679688 111.898438 159.382812 C 112.613281 160.363281 113.488281 161.167969 114.527344 161.796875 C 115.863281 162.65625 117.359375 163.257812 118.746094 164.027344 C 119.1875 164.246094 119.550781 164.554688 119.84375 164.949219 C 120.136719 165.34375 120.324219 165.78125 120.40625 166.265625 C 120.472656 166.65625 120.761719 167.015625 120.945312 167.386719 C 121.078125 167.652344 121.199219 167.925781 121.324219 168.199219 L 121.132812 168.375 L 120.058594 167.722656 C 118.984375 168.140625 118.015625 168.546875 117.023438 168.890625 C 116.542969 169.054688 116.042969 169.15625 115.53125 169.191406 C 115.15625 169.214844 114.773438 169.050781 114.386719 169.03125 C 113.867188 168.988281 113.347656 168.992188 112.828125 169.046875 C 111.339844 169.261719 109.941406 169.003906 108.628906 168.265625 C 107.914062 167.871094 107.246094 167.40625 106.632812 166.867188 C 106.222656 166.511719 105.917969 166.078125 105.730469 165.566406 C 105.222656 164.027344 104.78125 162.464844 104.386719 160.894531 C 104.039062 159.511719 103.804688 158.097656 103.480469 156.710938 C 103.195312 155.433594 102.917969 154.152344 102.523438 152.910156 C 102.320312 152.40625 101.988281 152.015625 101.527344 151.734375 C 100.792969 151.265625 100.492188 150.984375 100.859375 150.226562 C 102.003906 147.871094 101.546875 145.488281 101.253906 143.066406 C 100.792969 139.292969 100.445312 135.515625 100.046875 131.738281 C 99.929688 130.636719 99.800781 129.539062 99.675781 128.441406 L 99.375 128.199219 C 99.324219 128.414062 99.238281 128.617188 99.121094 128.804688 C 95.835938 132.421875 91.820312 134.730469 86.929688 135.28125 C 85.75 135.414062 85.101562 135.652344 84.894531 136.941406 C 84.769531 137.726562 84.140625 138.421875 83.816406 139.191406 C 83.570312 139.792969 83.28125 140.445312 83.304688 141.0625 C 83.414062 143.996094 83.621094 146.925781 83.8125 149.859375 C 83.867188 150.667969 83.742188 151.640625 84.148438 152.234375 C 84.554688 152.824219 85.539062 153 86.257812 153.398438 C 86.863281 153.730469 87.445312 154.097656 88 154.507812 C 88.414062 154.808594 88.90625 155.109375 88.714844 155.828125 C 88.667969 156.015625 89.015625 156.300781 89.164062 156.546875 C 89.464844 157.011719 89.730469 157.480469 90.070312 158.019531 C 89.566406 158.019531 89.164062 158.136719 88.925781 157.996094 C 88.203125 157.597656 87.839844 158.140625 87.308594 158.417969 C 86.53125 158.773438 85.726562 159.058594 84.898438 159.273438 C 84.558594 159.347656 84.21875 159.390625 83.871094 159.40625 C 83.976562 161.714844 84.074219 163.945312 84.773438 166.148438 C 86.027344 169.980469 88.4375 172.933594 91.519531 175.386719 C 92.027344 175.8125 92.503906 176.277344 92.949219 176.773438 C 93.402344 177.257812 93.851562 177.75 93.714844 178.523438 C 93.675781 178.757812 93.871094 179.03125 93.957031 179.289062 C 94.09375 179.699219 94.21875 180.113281 94.304688 180.375 L 92.65625 181.148438 C 92.578125 181.203125 92.492188 181.238281 92.398438 181.253906 C 91.871094 181.253906 91.34375 181.210938 90.816406 181.203125 C 90.691406 181.1875 90.578125 181.222656 90.480469 181.300781 C 89.84375 182.21875 88.929688 181.957031 88.050781 181.902344 C 87.386719 181.859375 86.710938 181.300781 86.039062 181.9375 C 85.980469 181.992188 85.652344 181.898438 85.582031 181.789062 C 85.105469 181.015625 84.285156 181.210938 83.597656 181.066406 C 83.09375 180.957031 82.566406 180.929688 82.066406 180.804688 C 80.429688 180.40625 79.492188 179.320312 78.824219 177.789062 C 77.824219 175.488281 77.734375 173.042969 77.4375 170.632812 C 77.136719 168.082031 76.40625 165.699219 74.894531 163.617188 C 74.113281 162.539062 74.035156 161.402344 74.207031 160.171875 C 74.296875 159.539062 74.363281 158.898438 74.464844 158.265625 C 74.550781 157.726562 74.339844 157.519531 73.800781 157.472656 C 70.683594 157.199219 67.566406 156.902344 64.457031 156.605469 C 64.097656 156.523438 63.730469 156.476562 63.363281 156.464844 C 63.0625 156.5 62.605469 156.683594 62.554688 156.882812 C 62.398438 157.515625 62.121094 157.640625 61.503906 157.253906 L 61.34375 158.363281 L 60.804688 158.144531 C 60.066406 158.613281 59.484375 159.25 58.839844 159.316406 C 58.066406 159.402344 57.199219 159.101562 56.445312 158.785156 C 55.453125 158.375 55 158.316406 54.414062 159.21875 C 53.695312 160.332031 52.695312 160.550781 51.53125 160.425781 C 50.742188 160.34375 49.992188 160.476562 49.28125 160.828125 C 47.867188 161.421875 46.34375 161.78125 44.847656 162.246094 Z M 73.394531 149.953125 L 71.605469 151.101562 L 71.679688 151.371094 C 72.296875 151.484375 72.921875 151.566406 73.546875 151.613281 C 73.679688 151.613281 73.96875 151.203125 73.933594 151.035156 C 73.800781 150.652344 73.621094 150.289062 73.394531 149.953125 Z M 73.394531 149.953125 " fill-opacity="1" fill-rule="nonzero"/></g></svg>