<svg xmlns="http://www.w3.org/2000/svg" xmlns:xlink="http://www.w3.org/1999/xlink" width="300" zoomAndPan="magnify" viewBox="0 0 224.87999 225" height="300" preserveAspectRatio="xMidYMid meet" version="1.0"><defs><clipPath id="d208c9f600"><path d="M 0 109 L 218 109 L 218 204.464844 L 0 204.464844 Z M 0 109 " clip-rule="nonzero"/></clipPath><clipPath id="923a2acca5"><path d="M 10 20.816406 L 100 20.816406 L 100 98 L 10 98 Z M 10 20.816406 " clip-rule="nonzero"/></clipPath></defs><g clip-path="url(#d208c9f600)"><path fill="#ffffff" d="M 208.273438 204.183594 L 9.621094 204.183594 C 4.382812 204.183594 0.015625 199.820312 0.015625 194.144531 L 0.015625 118.613281 C 0.015625 113.375 4.382812 109.007812 9.621094 109.007812 L 208.273438 109.007812 C 213.511719 109.007812 217.878906 113.375 217.878906 118.613281 L 217.878906 194.144531 C 217.878906 199.820312 213.511719 204.183594 208.273438 204.183594 Z M 74.238281 152.667969 C 72.492188 152.667969 71.179688 151.355469 71.179688 149.609375 L 71.179688 122.542969 L 71.617188 122.542969 L 71.617188 122.105469 L 72.054688 121.667969 L 72.492188 121.667969 L 72.492188 121.230469 L 73.363281 121.230469 L 73.363281 120.796875 L 81.222656 120.796875 C 87.335938 120.796875 91.703125 125.597656 91.703125 131.273438 L 91.703125 133.019531 C 91.703125 138.695312 87.335938 143.5 81.222656 143.5 L 77.292969 143.5 L 77.292969 149.609375 C 77.292969 151.355469 75.984375 152.667969 74.238281 152.667969 Z M 183.386719 192.398438 C 181.640625 192.398438 180.332031 191.085938 180.332031 189.339844 L 180.332031 174.496094 L 172.035156 162.707031 C 171.164062 161.398438 171.597656 159.652344 172.910156 158.34375 C 174.21875 157.46875 176.402344 157.90625 177.273438 159.214844 L 183.386719 167.949219 L 189.5 159.214844 C 190.371094 157.90625 192.117188 157.46875 193.867188 158.34375 C 195.175781 159.652344 195.613281 161.398438 194.300781 162.707031 L 186.441406 174.496094 L 186.441406 189.339844 C 186.441406 191.085938 185.132812 192.398438 183.386719 192.398438 Z M 174.65625 191.523438 L 163.738281 191.523438 C 161.992188 191.523438 160.683594 190.214844 160.683594 188.46875 L 160.683594 161.835938 C 160.683594 160.089844 161.992188 158.78125 163.738281 158.78125 C 165.050781 158.78125 166.796875 160.089844 166.796875 161.835938 L 166.796875 185.410156 L 174.65625 185.410156 C 176.402344 185.410156 177.710938 186.722656 177.710938 188.46875 C 177.710938 190.214844 176.402344 191.523438 174.65625 191.523438 Z M 144.964844 191.960938 L 134.925781 191.960938 C 133.179688 191.960938 131.867188 190.652344 131.867188 188.90625 L 131.867188 161.398438 C 131.867188 159.652344 133.179688 158.34375 134.925781 158.34375 L 144.964844 158.34375 C 152.386719 158.34375 158.0625 164.019531 158.0625 171.003906 L 158.0625 178.863281 C 158.0625 186.285156 152.386719 191.960938 144.964844 191.960938 Z M 137.980469 185.847656 L 144.964844 185.847656 C 148.894531 185.847656 151.953125 182.792969 151.953125 178.863281 L 151.953125 171.003906 C 151.953125 167.511719 148.894531 164.457031 144.964844 164.457031 L 137.980469 164.457031 Z M 126.628906 191.960938 C 125.320312 191.960938 124.445312 191.523438 124.011719 190.652344 L 113.53125 172.75 L 113.53125 188.90625 C 113.53125 190.652344 112.222656 191.960938 110.476562 191.960938 C 108.730469 191.960938 107.417969 190.652344 107.417969 188.90625 L 107.417969 160.960938 C 107.417969 159.652344 108.292969 158.34375 109.601562 158.34375 C 110.910156 157.90625 112.222656 158.34375 113.09375 159.652344 L 123.574219 177.554688 L 123.574219 161.835938 C 123.574219 160.089844 124.882812 158.78125 126.628906 158.78125 C 128.375 158.78125 129.6875 160.089844 129.6875 161.835938 L 129.6875 188.90625 C 129.6875 190.652344 128.8125 191.523438 127.503906 191.960938 C 127.066406 191.960938 126.628906 191.960938 126.628906 191.960938 Z M 101.742188 191.085938 L 86.027344 191.085938 C 84.28125 191.085938 82.96875 189.777344 82.96875 188.03125 L 82.96875 162.273438 C 82.96875 160.527344 84.28125 159.214844 86.027344 159.214844 L 101.742188 159.214844 C 103.488281 159.214844 104.800781 160.527344 104.800781 162.273438 C 104.800781 164.019531 103.488281 165.328125 101.742188 165.328125 L 89.082031 165.328125 L 89.082031 171.878906 L 101.742188 171.878906 C 103.488281 171.878906 104.800781 173.625 104.800781 174.933594 C 104.800781 176.679688 103.488281 177.988281 101.742188 177.988281 L 89.082031 177.988281 L 89.082031 184.976562 L 101.742188 184.976562 C 103.488281 184.976562 104.800781 186.285156 104.800781 188.03125 C 104.800781 189.777344 103.488281 191.085938 101.742188 191.085938 Z M 77.292969 190.652344 C 75.546875 190.652344 74.238281 189.339844 74.238281 187.59375 L 74.238281 162.273438 C 74.238281 160.527344 75.546875 159.214844 77.292969 159.214844 C 79.039062 159.214844 80.351562 160.527344 80.351562 162.273438 L 80.351562 187.59375 C 80.351562 189.339844 79.039062 190.652344 77.292969 190.652344 Z M 51.972656 191.960938 C 50.226562 191.960938 48.914062 190.652344 48.914062 188.90625 L 48.914062 161.398438 C 48.914062 159.652344 50.226562 158.34375 51.972656 158.34375 L 61.140625 158.34375 C 66.816406 158.34375 71.617188 163.144531 71.617188 169.257812 C 71.617188 173.1875 69.433594 176.679688 65.941406 178.425781 C 67.253906 180.609375 68.5625 183.230469 70.746094 187.15625 C 71.617188 188.46875 70.746094 190.214844 69.433594 191.085938 C 68.125 191.960938 65.941406 191.523438 65.070312 189.777344 C 63.324219 186.285156 60.703125 181.917969 59.394531 179.734375 L 55.027344 179.734375 L 55.027344 188.90625 C 55.027344 190.652344 53.71875 191.960938 51.972656 191.960938 Z M 55.027344 173.625 L 61.140625 173.625 C 63.757812 173.625 65.503906 171.441406 65.503906 169.257812 C 65.503906 166.636719 63.757812 164.457031 61.140625 164.457031 L 55.027344 164.457031 Z M 26.210938 191.960938 C 24.464844 191.960938 23.15625 190.652344 23.15625 188.90625 L 23.15625 161.398438 C 23.15625 159.652344 24.464844 158.34375 26.210938 158.34375 L 43.238281 158.34375 C 44.984375 158.34375 46.296875 159.652344 46.296875 161.398438 C 46.296875 163.144531 44.984375 164.457031 43.238281 164.457031 L 29.269531 164.457031 L 29.269531 173.1875 L 42.367188 173.1875 C 43.675781 173.1875 45.421875 174.496094 45.421875 176.242188 C 45.421875 177.554688 43.675781 179.300781 42.367188 179.300781 L 29.269531 179.300781 L 29.269531 188.90625 C 29.269531 190.652344 27.957031 191.960938 26.210938 191.960938 Z M 133.179688 152.230469 C 131.867188 152.230469 130.121094 150.921875 130.121094 149.175781 L 130.121094 126.90625 L 122.699219 126.90625 C 120.953125 126.90625 119.644531 125.597656 119.644531 123.851562 C 119.644531 122.105469 120.953125 120.796875 122.699219 120.796875 L 144.09375 120.796875 C 145.839844 120.796875 147.148438 122.105469 147.148438 123.851562 C 147.148438 125.597656 145.839844 126.90625 144.09375 126.90625 L 136.234375 126.90625 L 136.234375 149.175781 C 136.234375 150.921875 134.925781 152.230469 133.179688 152.230469 Z M 113.96875 152.667969 L 97.8125 152.667969 C 96.066406 152.667969 94.757812 151.355469 94.757812 149.609375 L 94.757812 123.851562 C 94.757812 122.105469 96.066406 120.796875 97.8125 120.796875 L 113.96875 120.796875 C 115.714844 120.796875 117.023438 122.105469 117.023438 123.851562 C 117.023438 125.597656 115.714844 126.90625 113.96875 126.90625 L 100.871094 126.90625 L 100.871094 133.894531 L 113.96875 133.894531 C 115.714844 133.894531 117.023438 135.203125 117.023438 136.949219 C 117.023438 138.695312 115.714844 140.003906 113.96875 140.003906 L 100.871094 140.003906 L 100.871094 146.554688 L 113.96875 146.554688 C 115.714844 146.554688 117.023438 147.863281 117.023438 149.609375 C 117.023438 151.355469 115.714844 152.667969 113.96875 152.667969 Z M 77.292969 126.90625 L 77.292969 137.386719 L 81.222656 137.386719 C 83.84375 137.386719 85.589844 135.203125 85.589844 133.019531 L 85.589844 131.273438 C 85.589844 129.089844 83.84375 126.90625 81.222656 126.90625 Z M 77.292969 126.90625 " fill-opacity="1" fill-rule="evenodd"/></g><path fill="#ffffff" d="M 125.320312 115.121094 C 123.574219 115.121094 122.261719 113.808594 122.261719 112.0625 L 122.261719 89.359375 C 121.828125 89.359375 121.390625 89.359375 120.953125 89.359375 C 117.898438 88.921875 115.277344 87.613281 113.96875 85.429688 C 111.347656 81.5 113.09375 76.699219 113.96875 73.207031 C 114.40625 72.332031 114.40625 71.894531 114.40625 71.460938 C 114.839844 70.148438 114.839844 64.910156 114.839844 62.292969 C 114.839844 60.980469 114.839844 59.671875 114.839844 59.234375 C 114.839844 41.769531 128.375 28.238281 146.277344 28.238281 C 153.261719 25.179688 160.246094 23.433594 168.105469 23.433594 C 175.527344 23.433594 182.949219 25.179688 189.9375 28.238281 C 207.835938 28.238281 221.371094 41.769531 221.371094 59.234375 C 221.371094 59.671875 221.371094 60.980469 221.371094 62.292969 C 221.371094 64.910156 221.371094 70.148438 221.371094 71.460938 C 221.808594 71.894531 221.808594 72.332031 222.246094 73.207031 C 223.117188 76.699219 224.863281 81.5 222.246094 85.429688 C 220.933594 87.613281 218.316406 88.921875 214.820312 89.359375 C 214.820312 89.359375 214.820312 89.359375 214.386719 89.359375 L 214.386719 112.0625 C 214.386719 113.808594 213.074219 115.121094 211.328125 115.121094 C 209.582031 115.121094 208.273438 113.808594 208.273438 112.5 L 128.375 112.5 C 128.375 113.808594 127.066406 115.121094 125.320312 115.121094 Z M 158.5 73.644531 C 154.136719 73.644531 150.640625 70.148438 150.640625 65.785156 C 150.640625 61.417969 154.136719 57.925781 158.5 57.925781 C 162.867188 57.925781 166.796875 61.417969 166.796875 65.785156 C 166.796875 70.148438 162.867188 73.644531 158.5 73.644531 Z M 171.164062 95.035156 C 171.164062 95.035156 171.164062 95.035156 170.726562 95.035156 L 170.289062 95.472656 C 169.851562 96.347656 168.980469 96.78125 168.105469 96.78125 C 167.234375 96.78125 166.359375 96.347656 165.488281 95.472656 L 165.050781 95.035156 C 165.050781 97.21875 166.359375 98.964844 168.105469 98.964844 C 169.851562 98.964844 171.164062 97.21875 171.164062 95.035156 Z M 158.9375 96.78125 C 152.386719 96.347656 147.585938 91.105469 147.585938 84.558594 C 147.585938 83.246094 148.894531 81.5 150.640625 81.5 C 151.953125 81.5 153.699219 83.246094 153.699219 84.558594 C 153.699219 88.050781 155.882812 90.671875 159.375 90.671875 C 159.8125 90.671875 160.246094 90.234375 161.121094 90.234375 L 157.628906 85.867188 C 157.191406 85.429688 157.191406 84.558594 157.191406 84.121094 C 157.191406 81.5 158.9375 79.753906 161.121094 79.753906 L 175.089844 79.753906 C 177.273438 79.753906 179.019531 81.5 179.019531 84.121094 C 179.019531 84.558594 179.019531 85.429688 178.585938 85.867188 L 175.089844 90.234375 C 175.527344 90.234375 176.402344 90.671875 176.839844 90.671875 C 179.894531 90.671875 182.515625 88.050781 182.515625 84.558594 C 182.515625 83.246094 183.824219 81.5 185.570312 81.5 C 187.316406 81.5 188.625 83.246094 188.625 84.558594 C 188.625 91.105469 183.386719 96.347656 177.273438 96.78125 C 176.402344 101.148438 172.472656 105.078125 168.105469 105.078125 C 163.738281 105.078125 159.8125 101.148438 158.9375 96.78125 Z M 168.105469 88.921875 C 168.105469 88.921875 168.105469 88.488281 168.105469 88.488281 L 170.289062 85.867188 L 165.488281 85.867188 Z M 177.273438 74.078125 C 172.472656 74.078125 168.542969 70.585938 168.542969 65.785156 C 168.542969 60.980469 172.472656 57.488281 177.273438 57.488281 C 181.640625 57.488281 185.570312 60.980469 185.570312 65.785156 C 185.570312 70.585938 181.640625 74.078125 177.273438 74.078125 Z M 177.273438 63.601562 C 175.964844 63.601562 174.65625 64.472656 174.65625 65.785156 C 174.65625 67.09375 175.964844 67.96875 177.273438 67.96875 C 178.148438 67.96875 179.457031 67.09375 179.457031 65.785156 C 179.457031 64.472656 178.148438 63.601562 177.273438 63.601562 Z M 158.5 64.039062 C 157.628906 64.039062 156.753906 64.910156 156.753906 65.785156 C 156.753906 66.65625 157.628906 67.53125 158.5 67.53125 C 159.8125 67.53125 160.683594 66.65625 160.683594 65.785156 C 160.683594 64.910156 159.8125 64.039062 158.5 64.039062 Z M 158.5 64.039062 " fill-opacity="1" fill-rule="evenodd"/><g clip-path="url(#923a2acca5)"><path fill="#ffffff" d="M 55.464844 97.65625 C 44.113281 97.65625 33.632812 95.035156 25.339844 90.671875 C 16.171875 84.996094 10.929688 77.136719 10.929688 67.96875 C 10.929688 63.164062 12.242188 58.796875 15.296875 54.433594 L 15.296875 31.730469 C 15.296875 23.871094 20.101562 20.816406 24.902344 20.816406 C 31.453125 20.816406 40.183594 26.492188 43.238281 34.347656 C 46.730469 33.039062 51.097656 32.601562 55.464844 32.601562 C 59.828125 32.601562 64.195312 33.039062 67.6875 34.347656 C 71.179688 26.492188 79.914062 20.816406 86.460938 20.816406 C 90.828125 20.816406 96.066406 23.871094 96.066406 31.730469 L 96.066406 54.433594 C 98.6875 58.796875 99.996094 63.164062 99.996094 67.96875 C 99.996094 77.136719 95.195312 84.996094 85.589844 90.671875 C 77.730469 95.035156 66.816406 97.65625 55.464844 97.65625 Z M 62.449219 65.347656 C 62.449219 65.347656 62.011719 65.347656 62.011719 65.347656 C 60.265625 64.910156 59.394531 63.164062 59.828125 61.417969 C 61.140625 56.617188 65.503906 53.121094 70.746094 53.121094 C 75.546875 53.121094 79.476562 56.179688 81.222656 60.546875 C 81.660156 62.292969 80.785156 64.039062 79.476562 64.472656 C 77.730469 64.910156 75.984375 64.472656 75.546875 62.726562 C 74.675781 60.546875 72.929688 59.234375 70.746094 59.234375 C 68.125 59.234375 66.378906 60.980469 65.503906 63.164062 C 65.070312 64.472656 64.195312 65.347656 62.449219 65.347656 Z M 31.015625 65.347656 C 30.578125 65.347656 30.578125 65.347656 30.140625 65.347656 C 28.832031 64.910156 27.523438 63.164062 27.957031 61.417969 C 29.269531 56.617188 34.070312 53.121094 38.875 53.121094 C 43.675781 53.121094 48.042969 56.179688 49.789062 60.546875 C 50.226562 62.292969 49.351562 64.039062 47.605469 64.472656 C 46.296875 64.910156 44.550781 64.472656 43.675781 62.726562 C 43.238281 60.546875 41.054688 59.234375 38.875 59.234375 C 36.691406 59.234375 34.507812 60.980469 34.070312 63.164062 C 33.632812 64.472656 32.324219 65.347656 31.015625 65.347656 Z M 31.015625 65.347656 " fill-opacity="1" fill-rule="evenodd"/></g><path fill="#ffffff" d="M 25.339844 115.121094 C 25.339844 115.121094 24.902344 115.121094 24.902344 115.121094 C 23.15625 114.683594 22.28125 112.9375 22.71875 111.191406 L 28.394531 89.359375 C 28.832031 87.613281 30.140625 86.742188 31.886719 87.175781 C 33.632812 87.175781 34.507812 88.921875 34.070312 90.671875 L 76.855469 90.671875 C 76.421875 88.921875 77.730469 87.175781 79.039062 87.175781 C 80.785156 86.742188 82.53125 87.613281 82.96875 89.359375 L 88.644531 111.191406 C 89.082031 112.9375 87.773438 114.683594 86.460938 115.121094 C 86.027344 115.121094 86.027344 115.121094 85.589844 115.121094 C 84.28125 115.121094 82.96875 114.246094 82.53125 112.9375 L 82.53125 112.5 L 28.832031 112.5 L 28.394531 112.9375 C 27.957031 114.246094 27.085938 115.121094 25.339844 115.121094 Z M 25.339844 115.121094 " fill-opacity="1" fill-rule="evenodd"/><path fill="#ffffff" d="M 3.074219 80.628906 C 1.761719 80.628906 0.453125 79.320312 0.015625 78.007812 C 0.015625 76.261719 0.890625 74.515625 2.636719 74.515625 L 23.59375 70.585938 C 25.339844 70.148438 27.085938 71.460938 27.523438 73.207031 C 27.523438 74.515625 26.648438 76.261719 24.902344 76.699219 L 3.945312 80.628906 C 3.507812 80.628906 3.507812 80.628906 3.074219 80.628906 Z M 3.074219 80.628906 " fill-opacity="1" fill-rule="evenodd"/><path fill="#ffffff" d="M 11.367188 91.542969 C 10.058594 91.542969 9.183594 90.671875 8.75 89.796875 C 7.875 88.050781 8.3125 86.304688 10.058594 85.867188 L 24.464844 78.882812 C 26.210938 78.007812 27.957031 78.882812 28.832031 80.191406 C 29.269531 81.9375 28.832031 83.683594 27.085938 84.121094 L 12.675781 91.105469 C 12.242188 91.542969 11.804688 91.542969 11.367188 91.542969 Z M 11.367188 91.542969 " fill-opacity="1" fill-rule="evenodd"/><path fill="#ffffff" d="M 107.855469 80.628906 C 107.855469 80.628906 107.417969 80.628906 107.417969 80.628906 L 86.027344 76.699219 C 84.714844 76.261719 83.40625 74.515625 83.84375 73.207031 C 83.84375 71.460938 85.589844 70.148438 87.335938 70.585938 L 108.292969 74.515625 C 110.039062 74.515625 111.347656 76.261719 110.910156 78.007812 C 110.476562 79.320312 109.164062 80.628906 107.855469 80.628906 Z M 107.855469 80.628906 " fill-opacity="1" fill-rule="evenodd"/><path fill="#ffffff" d="M 99.558594 91.542969 C 99.125 91.542969 98.6875 91.542969 98.25 91.105469 L 83.84375 84.121094 C 82.53125 83.683594 81.660156 81.9375 82.53125 80.191406 C 82.96875 78.882812 85.152344 78.007812 86.460938 78.882812 L 100.871094 85.867188 C 102.617188 86.304688 103.054688 88.050781 102.617188 89.796875 C 102.179688 90.671875 100.871094 91.542969 99.558594 91.542969 Z M 99.558594 91.542969 " fill-opacity="1" fill-rule="evenodd"/></svg>