<svg xmlns="http://www.w3.org/2000/svg" xmlns:xlink="http://www.w3.org/1999/xlink" width="300" zoomAndPan="magnify" viewBox="0 0 224.87999 225" height="300" preserveAspectRatio="xMidYMid meet" version="1.0"><defs><clipPath id="958a6933cf"><path d="M 0 9.820312 L 107.941406 9.820312 L 107.941406 202.464844 L 0 202.464844 Z M 0 9.820312 " clip-rule="nonzero"/></clipPath></defs><path fill="#ffffff" d="M 52.113281 101.332031 C 47.175781 101.332031 44.285156 97.605469 44.285156 92.863281 C 44.285156 87.875 47.46875 84.148438 52.382812 84.148438 C 57.496094 84.148438 60.285156 87.976562 60.285156 92.570312 C 60.285156 98.023438 56.976562 101.332031 52.113281 101.332031 Z M 58.667969 109.800781 L 54.125 109.800781 L 54.125 123.28125 L 50.347656 123.28125 L 50.347656 109.800781 L 45.878906 109.800781 L 45.878906 106.640625 L 58.667969 106.640625 Z M 57.988281 167.71875 L 47.59375 167.71875 L 47.59375 151.078125 L 51.371094 151.078125 L 51.371094 164.558594 L 57.988281 164.558594 Z M 57.210938 135.402344 L 57.210938 138.464844 L 51.085938 138.464844 L 51.085938 142.414062 L 57.925781 142.414062 L 57.925781 145.5 L 47.308594 145.5 L 47.308594 128.859375 L 57.582031 128.859375 L 57.582031 131.945312 L 51.085938 131.945312 L 51.085938 135.402344 Z M 45.398438 62.203125 L 49.175781 62.203125 L 49.175781 68.59375 L 55.371094 68.59375 L 55.371094 62.203125 L 59.125 62.203125 L 59.125 78.839844 L 55.371094 78.839844 L 55.371094 71.878906 L 49.175781 71.878906 L 49.175781 78.839844 L 45.398438 78.839844 Z M 70.257812 41.746094 L 33.238281 41.746094 C 27.65625 41.746094 23.117188 46.285156 23.117188 51.867188 L 23.117188 177.5625 C 23.117188 183.144531 27.65625 187.6875 33.238281 187.6875 L 70.257812 187.6875 C 75.839844 187.6875 80.382812 183.144531 80.382812 177.5625 L 80.382812 51.867188 C 80.382812 46.285156 75.839844 41.746094 70.257812 41.746094 " fill-opacity="1" fill-rule="nonzero"/><path fill="#ffffff" d="M 52.285156 87.136719 C 49.742188 87.136719 48.261719 89.554688 48.261719 92.789062 C 48.261719 96.050781 49.792969 98.347656 52.308594 98.347656 C 54.851562 98.347656 56.308594 95.925781 56.308594 92.691406 C 56.308594 89.703125 54.878906 87.136719 52.285156 87.136719 " fill-opacity="1" fill-rule="nonzero"/><g clip-path="url(#958a6933cf)"><path fill="#ffffff" d="M 95.246094 13.476562 C 90.222656 13.476562 85.878906 16.378906 83.789062 20.59375 L 11.410156 20.59375 L 11.410156 15.484375 C 11.410156 12.355469 8.875 9.816406 5.746094 9.816406 C 2.617188 9.816406 0.0820312 12.355469 0.0820312 15.484375 L 0.0820312 196.777344 C 0.0820312 199.90625 2.617188 202.441406 5.746094 202.441406 C 8.875 202.441406 11.410156 199.90625 11.410156 196.777344 L 11.410156 31.921875 L 83.789062 31.921875 C 85.878906 36.136719 90.222656 39.039062 95.246094 39.039062 C 102.300781 39.039062 108.027344 33.316406 108.027344 26.257812 C 108.027344 19.199219 102.300781 13.476562 95.246094 13.476562 " fill-opacity="1" fill-rule="nonzero"/></g><path fill="#ffffff" d="M 171.019531 173.105469 C 171.019531 173.105469 186.671875 124.683594 147.457031 114.441406 C 147.457031 114.441406 141.855469 110.761719 141.519531 109.464844 C 141.179688 108.164062 137.359375 103.859375 134.785156 102.730469 C 134.785156 102.730469 132.550781 95.832031 131.105469 94.867188 C 131.105469 94.867188 134.160156 78.207031 130.457031 76.429688 C 126.78125 74.695312 121.488281 84.9375 121.488281 84.9375 C 121.488281 84.9375 112.355469 85.902344 111.222656 85.421875 C 110.09375 84.9375 100.957031 75.804688 99.203125 77.246094 C 97.445312 78.6875 97.589844 81.742188 99.996094 94.554688 C 99.996094 94.554688 91.339844 104.339844 105.597656 118.429688 C 105.597656 118.429688 106.390625 120.042969 107.207031 122.925781 C 108 125.8125 105.933594 127.664062 108.964844 134.273438 C 112.015625 140.886719 118.101562 150.816406 117.136719 152.738281 C 117.136719 152.738281 117.789062 174.859375 115.527344 175.820312 C 113.265625 176.78125 109.035156 180.941406 114.085938 183.347656 C 114.085938 183.347656 114.109375 186.230469 115.839844 187.023438 C 119.613281 188.78125 123.535156 188.46875 125.289062 187.023438 C 127.042969 185.582031 128.175781 185.269531 129.785156 181.566406 L 133.632812 182.214844 C 133.367188 182.816406 132.742188 184.5 133.4375 186.160156 C 133.4375 186.160156 134.015625 187.507812 135.722656 188.46875 C 138.441406 190.007812 147.121094 189.070312 158.15625 186.0625 C 158.15625 186.0625 163.277344 189.597656 171.621094 185.101562 C 179.960938 180.605469 200.160156 180.460938 205.449219 186.0625 C 210.738281 191.664062 189.773438 194.910156 189.773438 194.910156 C 189.773438 194.910156 182.558594 200.511719 192.007812 201.476562 C 201.457031 202.4375 224.875 192.820312 215.402344 183.203125 C 205.929688 173.585938 187.03125 169.738281 171.019531 173.105469 Z M 171.019531 173.105469 " fill-opacity="1" fill-rule="nonzero"/></svg>