<svg xmlns="http://www.w3.org/2000/svg" xmlns:xlink="http://www.w3.org/1999/xlink" width="300" zoomAndPan="magnify" viewBox="0 0 224.87999 225" height="300" preserveAspectRatio="xMidYMid meet" version="1.0"><path fill="#ffffff" d="M 23.339844 122.414062 C 25.652344 123.5 28.136719 124.191406 30.726562 124.371094 C 43.640625 125.269531 52.609375 112.871094 52.449219 100.84375 C 52.34375 92.707031 50.628906 84.714844 45.265625 78.339844 C 37.183594 68.726562 24.296875 64.675781 14.246094 73.925781 C 0.0390625 87 6.707031 114.628906 23.339844 122.414062 Z M 23.339844 122.414062 " fill-opacity="1" fill-rule="nonzero"/><path fill="#ffffff" d="M 58.871094 70.558594 C 71.28125 85.773438 94.882812 83.460938 102.085938 64.695312 C 107.871094 49.101562 107.679688 28.269531 97.082031 14.894531 C 89.125 5.734375 74.660156 3.023438 63.925781 8.679688 C 42.46875 19.992188 45.035156 54.558594 58.871094 70.558594 Z M 58.871094 70.558594 " fill-opacity="1" fill-rule="nonzero"/><path fill="#ffffff" d="M 116.40625 59.179688 C 118.433594 71.269531 125.316406 81.484375 138.484375 84.007812 C 170.414062 90.125 184.722656 38.785156 165.128906 19.28125 C 155.835938 10.03125 139.234375 6.558594 128.820312 16.316406 C 117.867188 26.574219 113.996094 44.84375 116.40625 59.179688 Z M 116.40625 59.179688 " fill-opacity="1" fill-rule="nonzero"/><path fill="#ffffff" d="M 180.246094 124.238281 C 202.976562 138.167969 224.824219 107.34375 215.9375 86.644531 C 210.339844 73.609375 196.339844 66.5 184.257812 75.910156 C 175.988281 82.355469 170.578125 93.605469 170.125 104.003906 C 169.714844 113.355469 173.984375 120.398438 180.246094 124.238281 Z M 180.246094 124.238281 " fill-opacity="1" fill-rule="nonzero"/><path fill="#ffffff" d="M 168.75 128.453125 C 152.171875 107.28125 124.90625 93.429688 97.726562 98.238281 C 63.183594 104.957031 36.171875 140.796875 32.023438 174.664062 C 30.320312 193.609375 44.808594 208.644531 62.46875 213.347656 C 92.535156 221.988281 142.78125 220.371094 171.238281 207.21875 C 202.546875 189.875 185.464844 149.796875 168.75 128.453125 Z M 149.699219 171.132812 L 123.429688 171.132812 L 123.429688 197.402344 L 97.164062 197.402344 L 97.164062 171.132812 L 70.894531 171.132812 L 70.894531 144.867188 L 97.164062 144.867188 L 97.164062 118.597656 L 123.429688 118.597656 L 123.429688 144.867188 L 149.699219 144.867188 Z M 149.699219 171.132812 " fill-opacity="1" fill-rule="nonzero"/></svg>